<?xml version="1.0" encoding="utf-8"?>
<!-- Generator: Adobe Illustrator 22.1.0, SVG Export Plug-In . SVG Version: 6.00 Build 0)  -->
<svg version="1.1" id="Layer_1" xmlns="http://www.w3.org/2000/svg" xmlns:xlink="http://www.w3.org/1999/xlink" x="0px" y="0px"
	 viewBox="0 0 600 600" style="enable-background:new 0 0 600 600;" xml:space="preserve">
<style type="text/css">
	.st0{fill:#6163EA;stroke:#000000;stroke-width:0.25;stroke-linejoin:round;stroke-miterlimit:50;}
	.st1{fill:#FFFFFF;}
</style>
<title>Square Avatar 02</title>
<desc>Created with Sketch.</desc>
<path class="st0" d="M300,600L300,600C135,600,0,465,0,300v0C0,135,135,0,300,0h0c165,0,300,135,300,300v0C600,465,465,600,300,600z
	"/>
<g>
	<g>
		<g>
			<path class="st1" d="M364,236c-4-63-56.3-113-120.3-113C177.1,123,123,177.1,123,243.7c0,64,50,116.3,113,120.3
				c4,63,56.3,113,120.3,113c66.5,0,120.7-54.1,120.7-120.7C477,292.4,426.9,240,364,236z M139.1,243.7
				c0-57.7,46.9-104.6,104.6-104.6c55.1,0,100.3,42.9,104.2,97c-24.1,1.7-46.3,10.5-64.4,24.3c0.2-1.5,0.5-3,0.5-4.6
				c0-10.1-5.3-18.9-13.3-23.9c3.3-4.6,5.2-10.3,5.2-16.3c0-14.1-10.5-25.8-24.1-27.8v-8.5c0-4.4-3.6-8-8-8c-4.4,0-8,3.6-8,8v8
				h-16.1c-4.4,0-8,3.6-8,8s3.6,8,8,8v64.4c-4.4,0-8,3.6-8,8s3.6,8,8,8h16.1v8c0,4.4,3.6,8,8,8c4.4,0,8-3.6,8-8v-8h4
				c1.6,0,3.1-0.2,4.6-0.5c-13.8,18.2-22.6,40.3-24.3,64.4C181.9,344,139.1,298.8,139.1,243.7z M255.7,243.7
				c6.7,0,12.1,5.4,12.1,12.1c0,6.7-5.4,12.1-12.1,12.1h-20.1v-24.1H255.7z M235.6,227.6v-24.1h12.1c6.7,0,12.1,5.4,12.1,12.1
				c0,6.7-5.4,12.1-12.1,12.1H235.6z M356.3,460.9c-57.7,0-104.6-46.9-104.6-104.6s46.9-104.6,104.6-104.6s104.6,46.9,104.6,104.6
				S414,460.9,356.3,460.9z"/>
			<path class="st1" d="M352.3,324.1h28.2c4.4,0,8-3.6,8-8s-3.6-8-8-8h-16.1v-8c0-4.4-3.6-8-8-8s-8,3.6-8,8v8.5
				c-13.6,2-24.1,13.6-24.1,27.8c0,15.5,12.6,28.2,28.2,28.2h8c6.7,0,12.1,5.4,12.1,12.1c0,6.7-5.4,12.1-12.1,12.1h-28.2
				c-4.4,0-8,3.6-8,8s3.6,8,8,8h16.1v8c0,4.4,3.6,8,8,8s8-3.6,8-8v-8.5c13.6-2,24.1-13.6,24.1-27.8c0-15.5-12.6-28.2-28.2-28.2h-8
				c-6.7,0-12.1-5.4-12.1-12.1S345.6,324.1,352.3,324.1z"/>
			<path class="st1" d="M372.4,139.1c35.3,0.1,59.6,27.1,68.9,57.6l-17-8.5c-4-2-8.8-0.4-10.8,3.6c-2,4-0.4,8.8,3.6,10.8l32.2,16.1
				c1.2,0.6,2.4,0.8,3.6,0.8c3,0,5.8-1.6,7.2-4.4l16.1-32.2c2-4,0.4-8.8-3.6-10.8c-4-2-8.8-0.4-10.8,3.6l-6.2,12.5
				c-12.1-34.9-41.3-65.1-83.1-65.2h0c-4.4,0-8,3.6-8,8C364.3,135.5,367.9,139.1,372.4,139.1z"/>
			<path class="st1" d="M227.7,460.9c-35.3-0.1-59.6-27.1-68.9-57.6l17,8.5c4,2,8.8,0.4,10.8-3.6c2-4,0.4-8.8-3.6-10.8l-32.2-16.1
				c-4-2-8.8-0.4-10.8,3.6L124,417c-2,4-0.4,8.8,3.6,10.8c1.2,0.6,2.4,0.8,3.6,0.8c3,0,5.8-1.6,7.2-4.4l6.2-12.5
				c12.1,34.9,41.3,65.1,83.1,65.2h0c4.4,0,8-3.6,8-8C235.8,464.5,232.2,460.9,227.7,460.9z"/>
		</g>
	</g>
</g>
</svg>
